<svg width="40" height="41" viewBox="0 0 40 41" fill="none" xmlns="http://www.w3.org/2000/svg">
<ellipse opacity="0.2" cx="20" cy="20.5" rx="20" ry="20.5" fill="#039896"/>
<path d="M19.3225 22.1488C19.3225 21.8133 19.3786 21.4902 19.4815 21.1902H13.0124C12.4546 21.1902 11.9196 21.4173 11.5251 21.8216C11.1307 22.226 10.9091 22.7744 10.9091 23.3462V23.9003C10.9091 24.7554 11.2074 25.5837 11.7498 26.2347C13.2144 27.9929 15.4459 28.8614 18.3882 28.8614C18.7595 28.8614 19.1205 28.8471 19.4693 28.8193C19.372 28.5233 19.3224 28.2131 19.3225 27.9008V27.388C19.0223 27.411 18.7099 27.4225 18.3873 27.4225C15.8266 27.4225 13.9879 26.7073 12.8151 25.3009C12.4896 24.9102 12.3108 24.4132 12.311 23.8994V23.3462C12.311 22.9493 12.6252 22.6272 13.0124 22.6272H19.3225V22.1488ZM18.3873 9.69091C19.0014 9.69091 19.6094 9.81489 20.1768 10.0558C20.7441 10.2967 21.2596 10.6497 21.6938 11.0948C22.1281 11.54 22.4725 12.0684 22.7075 12.6499C22.9425 13.2315 23.0635 13.8548 23.0635 14.4843C23.0635 15.1137 22.9425 15.737 22.7075 16.3186C22.4725 16.9002 22.1281 17.4286 21.6938 17.8737C21.2596 18.3188 20.7441 18.6718 20.1768 18.9127C19.6094 19.1536 19.0014 19.2776 18.3873 19.2776C17.1471 19.2776 15.9576 18.7726 15.0807 17.8737C14.2037 16.9747 13.711 15.7555 13.711 14.4843C13.711 13.213 14.2037 11.9938 15.0807 11.0948C15.9576 10.1959 17.1471 9.69091 18.3873 9.69091V9.69091ZM18.3873 11.1289C17.9574 11.1289 17.5317 11.2157 17.1346 11.3843C16.7375 11.5529 16.3766 11.8001 16.0727 12.1117C15.7687 12.4232 15.5276 12.7931 15.3631 13.2002C15.1986 13.6073 15.1139 14.0436 15.1139 14.4843C15.1139 14.9249 15.1986 15.3612 15.3631 15.7683C15.5276 16.1754 15.7687 16.5453 16.0727 16.8568C16.3766 17.1684 16.7375 17.4156 17.1346 17.5842C17.5317 17.7528 17.9574 17.8396 18.3873 17.8396C19.2554 17.8396 20.088 17.4861 20.7019 16.8568C21.3157 16.2276 21.6606 15.3742 21.6606 14.4843C21.6606 13.5944 21.3157 12.7409 20.7019 12.1117C20.088 11.4824 19.2554 11.1289 18.3873 11.1289V11.1289ZM20.2577 22.1488C20.2577 21.6403 20.4548 21.1526 20.8056 20.7931C21.1564 20.4335 21.6321 20.2315 22.1282 20.2315H28.6749C29.171 20.2315 29.6468 20.4335 29.9976 20.7931C30.3484 21.1526 30.5454 21.6403 30.5454 22.1488V27.9008C30.5454 28.4094 30.3484 28.897 29.9976 29.2566C29.6468 29.6162 29.171 29.8182 28.6749 29.8182H22.1282C21.6321 29.8182 21.1564 29.6162 20.8056 29.2566C20.4548 28.897 20.2577 28.4094 20.2577 27.9008V22.1488ZM22.5959 23.1075C22.4718 23.1075 22.3529 23.158 22.2652 23.2479C22.1775 23.3378 22.1282 23.4597 22.1282 23.5868C22.1282 23.714 22.1775 23.8359 22.2652 23.9258C22.3529 24.0157 22.4718 24.0662 22.5959 24.0662H28.2073C28.3313 24.0662 28.4503 24.0157 28.538 23.9258C28.6257 23.8359 28.6749 23.714 28.6749 23.5868C28.6749 23.4597 28.6257 23.3378 28.538 23.2479C28.4503 23.158 28.3313 23.1075 28.2073 23.1075H22.5959ZM22.5959 25.9835C22.4718 25.9835 22.3529 26.034 22.2652 26.1239C22.1775 26.2138 22.1282 26.3357 22.1282 26.4628C22.1282 26.59 22.1775 26.7119 22.2652 26.8018C22.3529 26.8917 22.4718 26.9422 22.5959 26.9422H28.2073C28.3313 26.9422 28.4503 26.8917 28.538 26.8018C28.6257 26.7119 28.6749 26.59 28.6749 26.4628C28.6749 26.3357 28.6257 26.2138 28.538 26.1239C28.4503 26.034 28.3313 25.9835 28.2073 25.9835H22.5959Z" fill="#039896"/>
</svg>
