<svg id="Calque_1" data-name="Calque 1" xmlns="http://www.w3.org/2000/svg" xmlns:xlink="http://www.w3.org/1999/xlink" viewBox="0 0 778.02 236.52"><defs><style>.cls-1,.cls-4{fill:#1962a7;}.cls-2{fill:url(#Dégradé_sans_nom_32);}.cls-3{fill:url(#Dégradé_sans_nom_32-2);}.cls-4{font-size:166.88px;font-family:STHeitiTC-Medium, Heiti TC;font-weight:500;}.cls-5{font-size:78.24px;font-family:STHeitiTC-Light, Heiti TC;font-weight:300;}.cls-6{font-size:65.64px;}</style><linearGradient id="Dégradé_sans_nom_32" x1="31.38" y1="-438.31" x2="119.87" y2="-438.31" gradientTransform="translate(572.43 245.61) rotate(-90)" gradientUnits="userSpaceOnUse"><stop offset="0" stop-color="#243466"/><stop offset="1" stop-color="#1962a7"/></linearGradient><linearGradient id="Dégradé_sans_nom_32-2" x1="700.36" y1="-437.64" x2="791.18" y2="-437.64" gradientTransform="matrix(0, 1, 1, 0, 572.43, -682.56)" xlink:href="#Dégradé_sans_nom_32"/></defs><title>dawa tech png</title><path class="cls-1" d="M166.63,125.74h37.85l8,10.07q5.49,6.94,11,13.88a92.64,92.64,0,0,1-89.59,71.85c-41.83.15-78.9-28.6-89.73-69.74l19.66-26.06H102l31.54,44.31Z"/><path class="cls-2" d="M134.7,214.23l-70.95-88.5h39q16,19.92,31.93,39.82l30.75-39.82h39Z"/><path class="cls-1" d="M167.29,108.61h37.85l18.92-24c-10-41.92-47.22-71.69-89.59-71.85-41.83-.15-78.9,28.6-89.73,69.74L64.4,108.61h38.24L134.18,64.3Z"/><path class="cls-3" d="M135.36,17.8Q99.9,63.22,64.43,108.62h39l31.93-40.86,30.75,40.86h39Z"/><text class="cls-4" transform="translate(266.83 146.17)">dawa<tspan class="cls-5"><tspan x="0" y="62.84"> </tspan><tspan class="cls-6" x="19.56" y="62.84">tech.</tspan></tspan></text><rect class="cls-1" x="245.18" y="55.14" width="3.23" height="121.95"/></svg>