<svg width="110" height="77" viewBox="0 0 110 77" fill="none" xmlns="http://www.w3.org/2000/svg">
<path d="M0 0H36.4189V77H0V0Z" fill="#06C072"/>
<path d="M36.4189 0H73.5811V77H36.4189V0Z" fill="#FAFF00"/>
<path d="M73.5811 0H110V77H73.5811V0Z" fill="#FF0F00"/>
<path d="M63.3424 35.9575L57.9949 35.173L55.6045 30.2813C55.5392 30.1474 55.4318 30.039 55.2991 29.9731C54.9663 29.8073 54.5619 29.9454 54.3956 30.2813L52.0051 35.173L46.6577 35.9575C46.5102 35.9787 46.3755 36.0489 46.2723 36.1552C46.1475 36.2846 46.0787 36.4588 46.0811 36.6393C46.0835 36.8199 46.1568 36.9922 46.2849 37.1182L50.1538 40.9257L49.2398 46.3021C49.2183 46.4272 49.2321 46.5558 49.2794 46.6734C49.3267 46.791 49.4057 46.8929 49.5074 46.9674C49.6091 47.042 49.7296 47.0864 49.855 47.0954C49.9804 47.1044 50.1058 47.0778 50.217 47.0185L55 44.4802L59.783 47.0185C59.9136 47.0887 60.0652 47.1121 60.2106 47.0865C60.577 47.0228 60.8234 46.672 60.7603 46.3021L59.8462 40.9257L63.7151 37.1182C63.8204 37.0141 63.8899 36.878 63.911 36.7292C63.9679 36.3572 63.7109 36.0128 63.3424 35.9575Z" fill="#06C072"/>
</svg>
