<svg width="40" height="41" viewBox="0 0 40 41" fill="none" xmlns="http://www.w3.org/2000/svg">
<ellipse opacity="0.2" cx="20" cy="20.5" rx="20" ry="20.5" fill="#039896"/>
<path d="M11.0067 24.9009C11.0665 25.9194 11.5132 26.8765 12.2555 27.5765C12.9977 28.2764 13.9793 28.6662 14.9994 28.6662H17.6696C17.679 28.5142 17.703 28.3595 17.7416 28.2035L18.2416 26.2062C18.4282 25.4569 18.8148 24.7729 19.3614 24.2263L25.8004 17.7865C26.2964 17.2907 26.9191 16.9409 27.6004 16.7751C28.2818 16.6094 28.9955 16.634 29.6638 16.8465V13.9999L29.6571 13.7652C29.5973 12.7467 29.1506 11.7896 28.4083 11.0897C27.6661 10.3898 26.6845 9.99994 25.6644 10H20.3319V15.3332L20.3252 15.5678C20.2678 16.5459 19.8534 17.4689 19.1607 18.1617C18.468 18.8546 17.5451 19.269 16.5671 19.3264L16.3325 19.3331H11V24.6663L11.0067 24.9009ZM11.6106 17.1291C11.3984 17.3869 11.2365 17.6822 11.1333 17.9998H16.3325L16.5418 17.9918C17.1767 17.942 17.7727 17.6665 18.2222 17.2153C18.6716 16.7641 18.9447 16.167 18.9921 15.5318L18.9988 15.3332L18.9974 10.1333C18.5995 10.2634 18.2378 10.4854 17.9416 10.7813L11.7812 16.9425L11.6106 17.1291ZM20.3052 25.1689L26.7443 18.7291C26.9759 18.4976 27.2508 18.314 27.5534 18.1888C27.8559 18.0636 28.1802 17.9993 28.5076 17.9994C28.835 17.9995 29.1592 18.0641 29.4617 18.1896C29.7641 18.315 30.0389 18.4988 30.2704 18.7304C30.5018 18.9621 30.6854 19.237 30.8106 19.5396C30.9358 19.8422 31.0001 20.1665 31 20.494C30.9999 20.8215 30.9353 21.1457 30.8098 21.4482C30.6844 21.7507 30.5007 22.0255 30.269 22.257L23.83 28.6955C23.4549 29.0708 22.9849 29.3372 22.4702 29.4661L20.4732 29.9648C20.2746 30.0143 20.0666 30.0116 19.8694 29.9569C19.6722 29.9022 19.4925 29.7975 19.3477 29.6528C19.203 29.5082 19.0981 29.3285 19.0432 29.1313C18.9884 28.9342 18.9855 28.7261 19.0348 28.5275L19.5347 26.5302C19.6627 26.0156 19.9293 25.5436 20.3052 25.1702V25.1689Z" fill="#039896"/>
</svg>
