<svg width="19" height="19" viewBox="0 0 19 19" fill="none" xmlns="http://www.w3.org/2000/svg">
<circle opacity="0.2" cx="9.5" cy="9.5" r="9.5" fill="#039896"/>
<path d="M8.85714 5.64286C8.85714 5.28782 9.14496 5 9.5 5C9.85504 5 10.1429 5.28782 10.1429 5.64286V13.3571C10.1429 13.7122 9.85504 14 9.5 14C9.14496 14 8.85714 13.7122 8.85714 13.3571V5.64286Z" fill="#039896"/>
<path d="M5.64286 10.1429C5.28782 10.1429 5 9.85504 5 9.5C5 9.14496 5.28782 8.85714 5.64286 8.85714H13.3571C13.7122 8.85714 14 9.14496 14 9.5C14 9.85504 13.7122 10.1429 13.3571 10.1429H5.64286Z" fill="#039896"/>
</svg>
